# xmcd
#
# Track frame offsets: 
#        150
#        34955
#        68760
#        96380
#        114922
#        149347
#        175252
#        207897
#        239965
#
# Disc length: 3484 seconds
#
# Revision: 1
# Processed by: cddbd v1.5.2PL0 Copyright (c) Steve Scherf et al.
# Submitted via: ExactAudioCopyFreeDBPlugin 1.0
#
DISCID=860d9a09
DTITLE=Alain Brunet Quartet - Joue Gainsbourg
DYEAR=1993
DGENRE=Jazz
TTITLE0=La Javanaise
TTITLE1=Vieille Canaille
TTITLE2=Le Poinçonneur Des Lilas
TTITLE3=Elisa
TTITLE4=Black Trombone
TTITLE5=Chez Les Yeyes
TTITLE6=L'eau A La Bouche
TTITLE7=Couleur Cafe
TTITLE8=Baudelaire
EXTD=
EXTT0=
EXTT1=
EXTT2=
EXTT3=
EXTT4=
EXTT5=
EXTT6=
EXTT7=
EXTT8=
PLAYORDER=
